<svg width="1440" height="798" viewBox="0 0 1440 798" fill="none" xmlns="http://www.w3.org/2000/svg">
<path d="M-238.71 70.5515C-260.822 26.6198 -169.643 12.3796 -20.4836 12.2649C-14.3722 4.7116 -10.9213 0 -10.9213 0L-13.2511 12.2702C323.187 13.0168 943.016 82.6383 1234.55 48.9915C1659.04 0 1368.5 563.713 1465.79 541.494C1563.09 519.274 1402.1 819.236 1084.48 796.8C766.852 774.364 183.02 528.807 180.906 648.43C178.793 768.053 -129.822 626.211 -129.822 626.211L-13.2511 12.2702C-15.6768 12.2648 -18.0877 12.263 -20.4836 12.2649C-55.4695 55.5052 -177.645 191.874 -238.71 70.5515Z" fill="#A0D9E2" fill-opacity="0.24"/>
</svg>
