<svg width="536" height="526" viewBox="0 0 536 526" fill="none" xmlns="http://www.w3.org/2000/svg">
<path d="M516.315 87.2482C543.044 140.449 537.403 208.144 528.822 262.612C520.548 317.502 509.642 359.585 490.324 396.305C471.364 433.077 444.041 464.116 409.581 485.836C375.531 507.238 333.985 519.269 285.815 523.561C237.595 528.222 182.035 525.04 130.387 498.71C78.6879 472.749 30.5425 423.588 10.7217 362.733C-8.68968 301.561 0.223438 228.694 39.0558 183.141C77.4786 137.904 145.821 119.98 205.992 86.9396C266.522 53.9512 318.931 5.47724 374.889 0.435066C430.797 -4.23802 489.895 34.4686 516.315 87.2482Z" fill="#184981"/>
</svg>
